<svg xmlns="http://www.w3.org/2000/svg" width="100" height="100" viewBox="0 0 26.458 26.458">
    <rect width="26.378" height="26.508" x=".059" y=".001" rx="4" ry="4" style="fill:#242424;fill-opacity:1;stroke:none;stroke-width:.671348;stroke-linejoin:round;stroke-dasharray:none" />
    <g style="white-space:pre;shape-inside:url(#rect418-2);display:inline;fill:#ff1c30;stroke-width:1.06591;stroke-linejoin:round">
        <path d="M182.082 397.454v-50.027h15.38q4.033 0 7.542 1.494 3.51 1.493 6.123 4.18 2.613 2.614 4.107 6.124 1.493 3.509 1.493 7.54 0 3.958-1.493 7.468t-4.107 6.122q-2.613 2.539-6.123 4.032-3.51 1.494-7.541 1.494h-8.81v11.573zm6.57-18.144h8.81q2.614 0 4.929-.97 2.315-1.046 4.032-2.689 1.717-1.717 2.688-3.957 1.045-2.315 1.045-4.928 0-2.688-1.045-5.003-.97-2.314-2.688-4.032-1.717-1.717-4.032-2.688-2.315-.97-4.928-.97h-8.81z" aria-label="P" transform="translate(-64.218 -131.424)scale(.3884)" />
    </g>
</svg>