<?xml version="1.0" encoding="UTF-8" standalone="no"?>
<!-- Created with Inkscape (http://www.inkscape.org/) -->

<svg
   width="371"
   height="142"
   viewBox="0 0 98.160945 37.570857"
   version="1.1"
   id="svg9602"
   sodipodi:docname="logo-light.svg"
   inkscape:version="1.2.1 (9c6d41e4, 2022-07-14)"
   xmlns:inkscape="http://www.inkscape.org/namespaces/inkscape"
   xmlns:sodipodi="http://sodipodi.sourceforge.net/DTD/sodipodi-0.dtd"
   xmlns="http://www.w3.org/2000/svg"
   xmlns:svg="http://www.w3.org/2000/svg">
  <sodipodi:namedview
     id="namedview20"
     pagecolor="#ffffff"
     bordercolor="#000000"
     borderopacity="0.25"
     inkscape:showpageshadow="2"
     inkscape:pageopacity="0.0"
     inkscape:pagecheckerboard="0"
     inkscape:deskcolor="#d1d1d1"
     showgrid="false"
     inkscape:zoom="2.6316652"
     inkscape:cx="125.96587"
     inkscape:cy="61.177994"
     inkscape:window-width="1440"
     inkscape:window-height="744"
     inkscape:window-x="0"
     inkscape:window-y="25"
     inkscape:window-maximized="1"
     inkscape:current-layer="svg9602" />
  <defs
     id="defs9599" />
  <g
     id="layer1"
     transform="translate(-22.260864,-34.716253)">
    <rect
       style="fill:#242424;fill-opacity:0.99;stroke:none;stroke-width:1.24539;stroke-linejoin:round;stroke-dasharray:none"
       id="rect8445"
       width="65.39537"
       height="36.795055"
       x="22.703459"
       y="35.180595"
       rx="6.8266635"
       ry="6.5550508" />
    <g
       aria-label="P"
       transform="matrix(0.44612332,0,0,0.44612332,-53.310985,-114.20369)"
       id="text416-2"
       style="font-size:74.6667px;font-family:'The Amaranth';-inkscape-font-specification:'The Amaranth, Normal';white-space:pre;shape-inside:url(#rect418-2);display:inline;fill:#ff1c30;stroke-width:1.06591;stroke-linejoin:round">
      <path
         d="m 182.08151,397.45387 v -50.02669 h 15.38134 q 4.032,0 7.54134,1.49333 3.50933,1.49334 6.12267,4.18134 2.61333,2.61333 4.10667,6.12267 1.49333,3.50933 1.49333,7.54133 0,3.95734 -1.49333,7.46667 -1.49334,3.50934 -4.10667,6.12267 -2.61334,2.53867 -6.12267,4.03201 -3.50934,1.49333 -7.54134,1.49333 h -8.81067 v 11.57334 z m 6.57067,-18.14401 h 8.81067 q 2.61334,0 4.928,-0.97067 2.31467,-1.04533 4.03201,-2.688 1.71733,-1.71733 2.688,-3.95733 1.04533,-2.31467 1.04533,-4.92801 0,-2.688 -1.04533,-5.00267 -0.97067,-2.31466 -2.688,-4.032 -1.71734,-1.71733 -4.03201,-2.688 -2.31466,-0.97067 -4.928,-0.97067 h -8.81067 z"
         style="font-family:'Bunya PERSONAL';-inkscape-font-specification:'Bunya PERSONAL, Normal'"
         id="path9573" />
    </g>
    <g
       aria-label="l"
       transform="matrix(0.44612332,0,0,0.44612332,-36.59502,-114.22526)"
       id="text416-2-1"
       style="font-size:74.6667px;font-family:'The Amaranth';-inkscape-font-specification:'The Amaranth, Normal';white-space:pre;shape-inside:url(#rect418-2-8);display:inline;fill:#ff1c30;stroke-width:1.06591;stroke-linejoin:round">
      <path
         d="m 189.92152,349.36851 v 48.08536 h -6.27201 v -48.08536 z"
         style="font-family:'Bunya PERSONAL';-inkscape-font-specification:'Bunya PERSONAL, Normal'"
         id="path9570" />
    </g>
    <g
       aria-label="e"
       transform="matrix(0.44612332,0,0,0.44612332,15.071073,-114.17511)"
       id="text416-2-5"
       style="font-size:74.6667px;font-family:'The Amaranth';-inkscape-font-specification:'The Amaranth, Normal';white-space:pre;shape-inside:url(#rect418-2-53);display:inline;fill:#ff1c30;stroke-width:1.06591;stroke-linejoin:round">
      <path
         d="m 216.35353,388.8672 q -3.06134,4.55467 -7.24267,6.64533 -4.10667,2.09067 -8.96001,2.09067 -3.808,0 -7.168,-1.41867 -3.36,-1.49333 -5.824,-3.95733 -2.464,-2.464 -3.95734,-5.824 -1.41867,-3.36001 -1.41867,-7.16801 0,-3.88267 1.41867,-7.24267 1.49334,-3.36 3.95734,-5.824 2.464,-2.53867 5.824,-3.95734 3.36,-1.49333 7.168,-1.49333 4.85334,0 9.10934,2.24 4.33067,2.24 7.46667,6.944 l -21.65334,20.16001 q 1.19466,0.82134 2.98667,1.19467 1.792,0.29867 3.584,0.0747 3.136,-0.37334 5.824,-2.09067 2.76267,-1.792 4.62934,-4.48 z m -28.59735,-10.60267 q -0.224,2.83733 0.74667,5.22666 0.97066,2.38934 2.76267,3.73334 l 17.09867,-16.65067 q -1.41867,-1.71734 -3.808,-2.76267 -2.38934,-1.12 -5.22667,-0.97067 -2.31467,0.14933 -4.33067,1.04533 -2.016,0.896 -3.584,2.46401 -1.49333,1.49333 -2.464,3.50933 -0.97067,2.016 -1.19467,4.40534 z"
         style="font-family:'Bunya PERSONAL';-inkscape-font-specification:'Bunya PERSONAL, Normal'"
         id="path9558" />
    </g>
    <g
       aria-label="t"
       transform="matrix(0.44612332,0,0,0.44612332,32.445174,-114.17841)"
       id="text416-2-59"
       style="font-size:74.6667px;font-family:'The Amaranth';-inkscape-font-specification:'The Amaranth, Normal';white-space:pre;shape-inside:url(#rect418-2-6);display:inline;fill:#ff1c30;stroke-width:1.06591;stroke-linejoin:round">
      <path
         d="m 180.21484,360.71785 h 3.43467 v -11.34934 h 6.34667 v 11.34934 h 6.64534 v 5.22667 h -6.64534 v 20.23468 q 0,2.61333 1.64267,4.256 1.64267,1.568 4.256,1.568 v 5.6 q -6.048,0 -9.184,-2.912 -3.06134,-2.912 -3.06134,-8.512 v -20.23468 h -3.43467 z"
         style="font-family:'Bunya PERSONAL';-inkscape-font-specification:'Bunya PERSONAL, Normal'"
         id="path9555" />
    </g>
    <g
       aria-label="l"
       transform="matrix(0.44612332,0,0,0.44612332,9.157916,-114.17642)"
       id="text416-2-8"
       style="font-size:74.6667px;font-family:'The Amaranth';-inkscape-font-specification:'The Amaranth, Normal';white-space:pre;shape-inside:url(#rect418-2-5);display:inline;fill:#ff1c30;stroke-width:1.06591;stroke-linejoin:round">
      <path
         d="m 189.92152,349.36851 v 48.08536 h -6.27201 v -48.08536 z"
         style="font-family:'Bunya PERSONAL';-inkscape-font-specification:'Bunya PERSONAL, Normal'"
         id="path9561" />
    </g>
    <g
       aria-label="a"
       transform="matrix(0.44612332,0,0,0.44612332,-30.719029,-114.24707)"
       id="text416-2-4"
       style="font-size:74.6667px;font-family:'The Amaranth';-inkscape-font-specification:'The Amaranth, Normal';white-space:pre;shape-inside:url(#rect418-2-1);display:inline;fill:#ff1c30;stroke-width:1.06591;stroke-linejoin:round">
      <path
         d="m 181.85751,379.23519 q 0,-3.88267 1.344,-7.24267 1.344,-3.36 3.584,-5.824 2.31467,-2.53867 5.37601,-3.95734 3.136,-1.49333 6.72,-1.49333 4.256,0 7.76534,2.09067 3.50933,2.016 5.74933,5.45067 v -7.39201 h 6.34667 v 36.58669 h -6.34667 v -7.31734 q -2.24,3.43467 -5.74933,5.45067 -3.50934,2.016 -7.76534,2.016 -3.584,0 -6.72,-1.41867 -3.06134,-1.49333 -5.37601,-3.95733 -2.24,-2.464 -3.584,-5.824 -1.344,-3.36001 -1.344,-7.16801 z m 6.34667,0 q 0,2.464 0.896,4.704 0.97067,2.16534 2.53867,3.80801 1.64267,1.64266 3.808,2.61333 2.24,0.896 4.77867,0.896 2.464,0 4.62934,-0.896 2.24,-0.97067 3.88266,-2.61333 1.64267,-1.64267 2.61334,-3.80801 0.97067,-2.24 0.97067,-4.704 0,-2.464 -0.97067,-4.704 -0.97067,-2.24 -2.61334,-3.88267 -1.64266,-1.64267 -3.88266,-2.61333 -2.16534,-0.97067 -4.62934,-0.97067 -2.53867,0 -4.77867,0.97067 -2.16533,0.97066 -3.808,2.61333 -1.568,1.64267 -2.53867,3.88267 -0.896,2.24 -0.896,4.704 z"
         style="font-family:'Bunya PERSONAL';-inkscape-font-specification:'Bunya PERSONAL, Normal'"
         id="path9567" />
    </g>
    <g
       aria-label="y"
       transform="matrix(0.44612332,0,0,0.44612332,-11.285794,-114.11033)"
       id="text416-2-84"
       style="font-size:74.6667px;font-family:'The Amaranth';-inkscape-font-specification:'The Amaranth, Normal';white-space:pre;shape-inside:url(#rect418-2-3);display:inline;fill:#ff1c30;stroke-width:1.06591;stroke-linejoin:round">
      <path
         d="m 186.56151,360.86718 10.97601,28.07468 10.752,-28.07468 h 6.72001 l -18.74135,47.56269 h -6.272 l 4.256,-10.82667 -14.48534,-36.73602 z"
         style="font-family:'Bunya PERSONAL';-inkscape-font-specification:'Bunya PERSONAL, Normal'"
         id="path9564" />
    </g>
  </g>
</svg>
