<svg xmlns="http://www.w3.org/2000/svg" width="32" height="32" viewBox="0 0 198.244 197.115">
   <defs>
      <path id="a" d="M180.216 328.727h570.683v243.625H180.216z" />
   </defs>
   <g transform="translate(-186.213 -148.692)scale(1.7349)">
      <rect width="108.944" height="108.944" x="109.706" y="88.403" rx="11.373" ry="19.408" style="fill:#f0f9f2;fill-opacity:1;stroke:none;stroke-width:2.7659;stroke-linejoin:round;stroke-dasharray:none" />
      <g style="white-space:pre;shape-inside:url(#a);display:inline;fill:#ff1c30;stroke-width:1.06591;stroke-linejoin:round">
         <path d="M182.082 397.454v-50.027h15.38q4.033 0 7.542 1.494 3.51 1.493 6.123 4.18 2.613 2.614 4.107 6.124 1.493 3.509 1.493 7.54 0 3.958-1.493 7.468t-4.107 6.122q-2.613 2.539-6.123 4.032-3.51 1.494-7.541 1.494h-8.81v11.573zm6.57-18.144h8.81q2.614 0 4.929-.97 2.315-1.046 4.032-2.689 1.717-1.717 2.688-3.957 1.045-2.315 1.045-4.928 0-2.688-1.045-5.003-.97-2.314-2.688-4.032-1.717-1.717-4.032-2.688-2.315-.97-4.928-.97h-8.81z" aria-label="P" transform="matrix(1.32094 0 0 1.3209 -101.597 -354.387)" />
      </g>
   </g>
</svg>