<svg xmlns="http://www.w3.org/2000/svg" viewBox="0 0 36 36">
  <circle cx="18" cy="18" r="17" fill="#3b3b3b" />
  <path fill="#ffffff" d="M12.5 11.5c-4 0-7.5 3.1-7.5 7.5s3.5 7.5 7.5 7.5c1.9 0 3.4-.6 4.7-1.8l-1.7-1.6c-.8.8-1.7 1.2-3 1.2-2.6 0-4.4-2-4.4-5.3 0-3.2 1.8-5.2 4.4-5.2 1.3 0 2.2.4 3 1.1l1.7-1.6c-1.3-1.3-2.8-2-4.7-2z" />
  <path fill="#ffffff" d="M23.5 11.5c-4 0-7.5 3.1-7.5 7.5s3.5 7.5 7.5 7.5c1.9 0 3.4-.6 4.7-1.8l-1.7-1.6c-.8.8-1.7 1.2-3 1.2-2.6 0-4.4-2-4.4-5.3 0-3.2 1.8-5.2 4.4-5.2 1.3 0 2.2.4 3 1.1l1.7-1.6c-1.3-1.3-2.8-2-4.7-2z" />
</svg>
