<?xml version="1.0" encoding="UTF-8" standalone="no"?>
<svg
    viewBox="0 0 36 36"
    version="1.1"
    xmlns="http://www.w3.org/2000/svg"
    xmlns:svg="http://www.w3.org/2000/svg">
    <g
        transform="translate(0,9)">
        <path
            fill="#FFFF"
            d="m 27,0 a 1,1 0 0 1 1,1 V 8 H 26 V 2 H 10 v 14 h 6 v 2 H 9 A 1,1 0 0 1 8,17 V 1 A 1,1 0 0 1 9,0 Z m 0,10 a 1,1 0 0 1 1,1 v 6 a 1,1 0 0 1 -1,1 h -8 a 1,1 0 0 1 -1,-1 v -6 a 1,1 0 0 1 1,-1 z M 12.707,3.293 14.957,5.543 17,3.5 V 9 h -5.5 l 2.043,-2.043 -2.25,-2.25 z"
        />
    </g>
</svg>