<?xml version="1.0" encoding="iso-8859-1"?>
<!-- Uploaded to: SVG Repo, www.svgrepo.com, Generator: SVG Repo Mixer Tools -->
<svg version="1.1" id="Layer_1" xmlns="http://www.w3.org/2000/svg" xmlns:xlink="http://www.w3.org/1999/xlink" 
	 viewBox="0 0 512 512" xml:space="preserve">
<polygon style="fill:#F8C660;" points="419.694,214.205 337.847,109.715 255.99,214.205 174.143,109.715 92.296,214.205 
	10.449,109.715 10.449,360.489 501.551,360.489 501.551,109.715 "/>
<rect x="10.449" y="360.489" style="fill:#ECF0F1;" width="491.102" height="41.796"/>
<g>
	<circle style="fill:#DF5F4E;" cx="174.143" cy="277.242" r="37.616"/>
	<circle style="fill:#DF5F4E;" cx="337.836" cy="277.242" r="37.616"/>
	<path style="fill:#DF5F4E;" d="M501.551,314.863c-20.898,0-37.616-16.842-37.616-37.616c0-20.775,16.718-37.616,37.616-37.616
		V314.863z"/>
	<path style="fill:#DF5F4E;" d="M10.449,239.63c20.898,0,37.616,16.842,37.616,37.616c0,20.775-16.718,37.616-37.616,37.616V239.63z
		"/>
</g>
<g>
	<path style="fill:#231F20;" d="M504.959,99.838c-4.214-1.453-8.885-0.074-11.634,3.434l-73.632,93.99l-73.621-93.989
		c-1.981-2.529-5.013-4.005-8.225-4.005c-3.211,0-6.245,1.477-8.225,4.005l-73.632,93.99l-73.621-93.989
		c-1.981-2.529-5.013-4.005-8.225-4.005s-6.245,1.477-8.225,4.005l-73.621,93.989l-73.621-93.989
		c-2.749-3.509-7.42-4.889-11.634-3.435C2.827,101.291,0,105.257,0,109.715v292.571c0,5.771,4.679,10.448,10.449,10.448h491.102
		c5.77,0,10.449-4.677,10.449-10.448V109.715C512,105.257,509.172,101.291,504.959,99.838z M491.102,302.324
		c-9.81-4.102-16.718-13.798-16.718-25.078c0-11.28,6.909-20.975,16.718-25.078V302.324z M84.07,220.648
		c6.988,6.988,15.874,0.706,16.366,0.095c0.028-0.036,0.056-0.059,0.086-0.095l73.621-93.989l73.621,93.989
		c2.061,2.631,5.13,4.006,8.233,4.006c5.053,0,8.207-3.989,8.218-4.005l73.632-93.99c0,0,74.8,95.371,75.154,95.555
		c0.085,0.071,0.162,0.147,0.249,0.216c4.543,3.559,11.109,2.762,14.669-1.782l63.182-80.653v90.343
		c-21.494,4.786-37.616,23.994-37.616,46.908c0,22.914,16.123,42.123,37.616,46.908v25.886H20.898v-25.886
		c21.494-4.786,37.616-23.994,37.616-46.908s-16.123-42.123-37.616-46.908v-90.34L84.07,220.648z M20.898,252.169
		c9.81,4.102,16.718,13.798,16.718,25.078c0,11.28-6.909,20.975-16.718,25.078V252.169z M491.102,391.836H20.898v-20.898h470.204
		V391.836z"/>
	<path style="fill:#231F20;" d="M174.143,325.312c26.503,0,48.065-21.563,48.065-48.065c0-26.503-21.563-48.065-48.065-48.065
		s-48.065,21.563-48.065,48.065C126.077,303.749,147.64,325.312,174.143,325.312z M174.143,250.079
		c14.981,0,27.167,12.188,27.167,27.167c0,14.98-12.187,27.167-27.167,27.167c-14.981,0-27.167-12.188-27.167-27.167
		C146.975,262.267,159.162,250.079,174.143,250.079z"/>
	<path style="fill:#231F20;" d="M337.842,325.312c26.503,0,48.065-21.563,48.065-48.065c0-26.503-21.563-48.065-48.065-48.065
		c-26.503,0-48.065,21.563-48.065,48.065C289.776,303.749,311.339,325.312,337.842,325.312z M337.842,250.079
		c14.981,0,27.167,12.188,27.167,27.167c0,14.98-12.187,27.167-27.167,27.167c-14.981,0-27.167-12.188-27.167-27.167
		C310.674,262.267,322.861,250.079,337.842,250.079z"/>
</g>
</svg>