<svg xmlns="http://www.w3.org/2000/svg" xml:space="preserve" viewBox="0 0 512 512">
    <path d="m419.694 214.205-81.847-104.49-81.857 104.49-81.847-104.49-81.847 104.49-81.847-104.49v250.774h491.102V109.715z" style="fill:#f8c660"/>
    <path d="M10.449 360.489h491.102v41.796H10.449z" style="fill:#ecf0f1"/>
    <circle cx="174.143" cy="277.242" r="37.616" style="fill:#df5f4e"/>
    <circle cx="337.836" cy="277.242" r="37.616" style="fill:#df5f4e"/>
    <path d="M501.551 314.863c-20.898 0-37.616-16.842-37.616-37.616s16.718-37.616 37.616-37.616zM10.449 239.63c20.898 0 37.616 16.842 37.616 37.616s-16.718 37.616-37.616 37.616z" style="fill:#df5f4e"/>
    <path d="M504.959 99.838a10.45 10.45 0 0 0-11.634 3.434l-73.632 93.99-73.621-93.989a10.446 10.446 0 0 0-16.45 0l-73.632 93.99-73.621-93.989a10.446 10.446 0 0 0-16.45 0l-73.621 93.989-73.621-93.989a10.45 10.45 0 0 0-11.634-3.435A10.44 10.44 0 0 0 0 109.715v292.571c0 5.771 4.679 10.448 10.449 10.448h491.102c5.77 0 10.449-4.677 10.449-10.448V109.715c0-4.458-2.828-8.424-7.041-9.877m-13.857 202.486c-9.81-4.102-16.718-13.798-16.718-25.078s6.909-20.975 16.718-25.078zM84.07 220.648c6.988 6.988 15.874.706 16.366.095.028-.036.056-.059.086-.095l73.621-93.989 73.621 93.989a10.43 10.43 0 0 0 8.233 4.006c5.053 0 8.207-3.989 8.218-4.005l73.632-93.99s74.8 95.371 75.154 95.555c.085.071.162.147.249.216 4.543 3.559 11.109 2.762 14.669-1.782l63.182-80.653v90.343c-21.494 4.786-37.616 23.994-37.616 46.908s16.123 42.123 37.616 46.908v25.886H20.898v-25.886c21.494-4.786 37.616-23.994 37.616-46.908s-16.123-42.123-37.616-46.908v-90.34zm-63.172 31.521c9.81 4.102 16.718 13.798 16.718 25.078s-6.909 20.975-16.718 25.078zm470.204 139.667H20.898v-20.898h470.204z" style="fill:#231f20"/>
    <path d="M174.143 325.312c26.503 0 48.065-21.563 48.065-48.065 0-26.503-21.563-48.065-48.065-48.065s-48.065 21.563-48.065 48.065c-.001 26.502 21.562 48.065 48.065 48.065m0-75.233c14.981 0 27.167 12.188 27.167 27.167s-12.187 27.167-27.167 27.167-27.167-12.188-27.167-27.167c-.001-14.979 12.186-27.167 27.167-27.167m163.699 75.233c26.503 0 48.065-21.563 48.065-48.065 0-26.503-21.563-48.065-48.065-48.065-26.503 0-48.065 21.563-48.065 48.065-.001 26.502 21.562 48.065 48.065 48.065m0-75.233c14.981 0 27.167 12.188 27.167 27.167s-12.187 27.167-27.167 27.167-27.167-12.188-27.167-27.167c-.001-14.979 12.186-27.167 27.167-27.167" style="fill:#231f20"/>
</svg>
