<?xml version="1.0" encoding="UTF-8" standalone="no"?>
<svg
   fill="#202020"
   width="800px"
   height="800px"
   viewBox="0 0 32 32"
   version="1.1"
   id="svg4"
   sodipodi:docname="globe-black.svg"
   inkscape:version="1.2.1 (9c6d41e4, 2022-07-14)"
   xmlns:inkscape="http://www.inkscape.org/namespaces/inkscape"
   xmlns:sodipodi="http://sodipodi.sourceforge.net/DTD/sodipodi-0.dtd"
   xmlns="http://www.w3.org/2000/svg"
   xmlns:svg="http://www.w3.org/2000/svg">
   <defs
      id="defs8" />
   <sodipodi:namedview
      id="namedview6"
      pagecolor="#ffffff"
      bordercolor="#000000"
      borderopacity="0.25"
      inkscape:showpageshadow="2"
      inkscape:pageopacity="0.0"
      inkscape:pagecheckerboard="0"
      inkscape:deskcolor="#d1d1d1"
      showgrid="false"
      inkscape:zoom="0.295"
      inkscape:cx="-403.38983"
      inkscape:cy="410.16949"
      inkscape:window-width="1309"
      inkscape:window-height="456"
      inkscape:window-x="0"
      inkscape:window-y="25"
      inkscape:window-maximized="0"
      inkscape:current-layer="svg4" />
   <path
      d="M 32,16 C 32,7.4995307 25.336328,0.528968 16.958085,0.032 16.785429,0.013 16.612771,0 16.436125,0 16.384259,0 16.332339,0.00506667 16.280419,0.00693333 16.187627,0.005 16.094811,0 15.999997,0 7.1776453,0 0,7.177552 0,16 c 0,8.822448 7.1776453,16 15.999997,16 0.09379,0 0.187627,-0.0061 0.28044,-0.008 0.05187,0.0019 0.103787,0.008 0.155707,0.008 0.175653,0 0.348304,-0.012 0.521957,-0.032 C 25.336328,31.471029 32,24.500467 32,15.999997 Z m -2.977045,5.150675 C 28.473053,20.990696 27.091816,20.643709 24.654691,20.356728 24.856285,18.975813 24.967067,17.516907 24.967067,16 c 0,-1.195923 -0.06885,-2.353851 -0.196587,-3.468781 3.087824,-0.369979 4.441115,-0.83495 4.530936,-0.86695 l -0.371261,-1.04993 c 0.693613,1.658896 1.077842,3.477778 1.077842,5.385661 0,1.817885 -0.351298,3.554779 -0.985029,5.150675 z M 8.9351307,16 c 0,-1.118931 0.073867,-2.211861 0.2095733,-3.262795 1.617768,0.126987 3.553893,0.221974 5.827344,0.242987 v 6.938571 c -2.214571,0.02107 -4.105784,0.110986 -5.6976,0.233973 C 9.0548747,18.833816 8.9351253,17.437904 8.9351253,15.998995 Z M 16.965069,2.1328667 c 2.447104,0.7109573 4.542915,4.114744 5.481038,8.6274583 -1.508982,0.119974 -3.32535,0.208987 -5.481038,0.228987 z m -1.992016,0.024 v 8.8314503 c -2.131736,-0.02107 -3.957085,-0.108986 -5.4910157,-0.226 C 10.44012,6.3056 12.551896,2.9268107 14.973053,2.156856 Z m 0,19.7557623 v 7.928504 c -2.25848,-0.717949 -4.247504,-3.704768 -5.2824317,-7.718514 1.4890187,-0.109974 3.2465037,-0.188987 5.2814317,-0.21 z m 1.992016,7.954504 v -7.954504 c 2.056888,0.02 3.806387,0.101974 5.277448,0.216987 -1.016968,4.066747 -2.994016,7.075555 -5.277448,7.737517 z m 0,-9.947373 v -6.938568 c 2.286427,-0.02107 4.209582,-0.117973 5.806387,-0.249973 0.130747,1.052933 0.202587,2.146861 0.202587,3.267792 0,1.441909 -0.115787,2.839821 -0.328344,4.159744 -1.571854,-0.127974 -3.455088,-0.218987 -5.680638,-0.239974 z M 28.562875,9.810392 c -0.3014,0.093973 -1.56088,0.452968 -4.085832,0.750955 -0.562872,-2.9978217 -1.580838,-5.5606617 -2.90419,-7.4115443 3.041918,1.3249173 5.52395,3.6967706 6.991019,6.6605866 z M 11.222557,2.831824 C 9.5938133,4.7047093 8.2654667,7.3995387 7.5389253,10.585339 5.2784427,10.340352 3.9231547,10.051373 3.3812373,9.9203813 4.9630747,6.6505867 7.7794427,4.0847467 11.221557,2.832824 Z M 2.64072,11.787261 c 0.3842293,0.103974 1.8373253,0.466974 4.53992,0.765952 C 7.0259467,13.660147 6.94112,14.813075 6.94112,16 c 0,1.508909 0.1357333,2.959813 0.38224,4.333731 C 5.0029947,20.584717 3.575848,20.885693 2.936128,21.039685 2.3303387,19.473781 1.9940133,17.775891 1.9940133,15.999 c 0,-1.466909 0.2275467,-2.882819 0.647704,-4.212739 z m 1.167664,11.09831 c 0.7255467,-0.153974 2.0249493,-0.389976 3.9481013,-0.590968 0.7574854,2.802826 1.9890214,5.17468 3.4660697,6.873576 C 8.0688613,28.020251 5.444112,25.770387 3.808384,22.886571 v 0 z m 17.763472,5.962624 c 1.192613,-1.664896 2.135728,-3.906752 2.722555,-6.524592 1.978042,0.226986 3.21956,0.49397 3.845312,0.65196 -1.497008,2.59584 -3.8004,4.668709 -6.567867,5.872632 z"
      id="path2"
      style="stroke-width:0.998971" />
</svg>