<?xml version="1.0" encoding="UTF-8" standalone="no"?>
<svg
   fill="#EBEBEB"
   width="800px"
   height="800px"
   viewBox="0 0 32 32"
   version="1.1"
   id="svg4"
   sodipodi:docname="globe-white.svg"
   inkscape:version="1.2.1 (9c6d41e4, 2022-07-14)"
   xmlns:inkscape="http://www.inkscape.org/namespaces/inkscape"
   xmlns:sodipodi="http://sodipodi.sourceforge.net/DTD/sodipodi-0.dtd"
   xmlns="http://www.w3.org/2000/svg"
   xmlns:svg="http://www.w3.org/2000/svg">
   <defs
      id="defs8" />
   <sodipodi:namedview
      id="namedview6"
      pagecolor="#ffffff"
      bordercolor="#000000"
      borderopacity="0.25"
      inkscape:showpageshadow="2"
      inkscape:pageopacity="0.0"
      inkscape:pagecheckerboard="0"
      inkscape:deskcolor="#d1d1d1"
      showgrid="false"
      inkscape:zoom="0.295"
      inkscape:cx="-257.62712"
      inkscape:cy="379.66102"
      inkscape:window-width="1309"
      inkscape:window-height="456"
      inkscape:window-x="0"
      inkscape:window-y="25"
      inkscape:window-maximized="0"
      inkscape:current-layer="svg4" />
   <path
      d="M 32,16 C 32,7.4996 25.336328,0.529 16.958085,0.032 16.785424,0.012 16.612771,0 16.436125,0 16.384232,0 16.332312,0 16.280419,0 16.187619,0 16.094792,0 15.999989,0 7.1776453,0 0,7.1776 0,16 c 0,8.8224 7.1776453,16 15.999997,16 0.09381,0 0.187627,0 0.28044,0 0.05189,0 0.103814,0 0.155707,0 0.175653,0 0.348304,-0.02 0.521957,-0.032 C 25.336328,31.471 32,24.5004 32,16 Z m -2.977045,5.1506 c -0.549902,-0.16 -1.931139,-0.5068 -4.368264,-0.7938 0.2016,-1.381 0.312376,-2.8398 0.312376,-4.3568 0,-1.196 -0.06885,-2.3538 -0.196587,-3.4688 3.087824,-0.37 4.441115,-0.835 4.530936,-0.867 l -0.371261,-1.0498 c 0.693613,1.6588 1.077842,3.4778 1.077842,5.3856 0,1.8178 -0.351298,3.5548 -0.985029,5.1506 z M 8.9351307,16 c 0,-1.119 0.073867,-2.2118 0.2095733,-3.2628 1.617768,0.128 3.553896,0.222 5.827344,0.242987 v 6.9386 c -2.214571,0.02187 -4.105787,0.112 -5.6976027,0.234 -0.2195733,-1.319 -0.33932,-2.7148 -0.33932,-4.1538 z M 16.965067,2.1328 c 2.447106,0.711 4.542917,4.1148 5.48104,8.6276 -1.508984,0.12 -3.325352,0.208987 -5.48104,0.228987 z m -1.992014,0.024 v 8.8316 C 12.841317,10.96627 11.015968,10.8784 9.4820373,10.7624 10.44012,6.3056 12.551896,2.9268 14.973053,2.1568 Z m 0,19.7558 v 7.9286 c -2.25848,-0.718 -4.247504,-3.7048 -5.2824317,-7.7186 1.4890187,-0.11 3.2465017,-0.19 5.2814317,-0.21 z m 1.992014,7.9546 v -7.9546 c 2.05689,0.02 3.806389,0.102 5.27745,0.217013 -1.016968,4.0668 -2.994016,7.0756 -5.27745,7.7376 z m 0,-9.9474 v -6.9386 c 2.286429,-0.02213 4.209584,-0.118 5.806389,-0.25 0.130747,1.053 0.202587,2.1468 0.202587,3.2678 0,1.442 -0.115787,2.8398 -0.328344,4.1598 -1.571854,-0.128 -3.455088,-0.219013 -5.68064,-0.24 z M 28.562875,9.8104 c -0.3014,0.094 -1.56088,0.453 -4.085832,0.751 -0.562872,-2.9978 -1.580838,-5.5608 -2.90419,-7.4116 3.041918,1.325 5.52395,3.6968 6.991019,6.6606 z M 11.222555,2.8318 C 9.5938133,4.7048 8.2654667,7.3996 7.5389253,10.5854 5.2784427,10.340387 3.9231547,10.0514 3.3812373,9.9204 4.9630747,6.6506 7.7794427,4.0848 11.221555,2.8328 Z m -8.5818377,8.9554 c 0.384232,0.104 1.837328,0.467 4.5399227,0.766 C 7.0259467,13.6602 6.94112,14.813 6.94112,16 c 0,1.509 0.1357333,2.9598 0.38224,4.3338 C 5.0029973,20.584813 3.5758507,20.8856 2.9361307,21.0396 2.3303413,19.4738 1.994016,17.7758 1.994016,15.999 c 0,-1.467 0.2275467,-2.8828 0.647704,-4.2128 z M 3.808384,22.8856 c 0.7255493,-0.154 2.0249493,-0.39 3.9481013,-0.591 0.7574854,2.8028 1.989024,5.1746 3.4660697,6.8736 -3.1536937,-1.148 -5.778443,-3.3978 -7.414171,-6.2816 v 0 z m 17.763472,5.9626 c 1.192613,-1.665 2.135728,-3.9068 2.722555,-6.5246 1.978042,0.227013 3.21956,0.494 3.845312,0.652 -1.497008,2.5958 -3.8004,4.6686 -6.567867,5.8726 z"
      id="path2"
      style="stroke-width:0.998971" />
</svg>