<svg xmlns="http://www.w3.org/2000/svg" xml:space="preserve" viewBox="0 0 122.88 122.88">
    <path fill="#EBEBEB" d="M61.44 9.23c-1.85 0-3.64.08-5.35.25s-3.44.42-5.17.77c-1.72.34-3.39.77-5 1.26-1.59.49-3.16 1.07-4.7 1.72l-.1.05c-1.63.7-3.18 1.45-4.67 2.25-1.5.81-2.94 1.68-4.31 2.6a50.3 50.3 0 0 0-7.67 6.32l-.04.04q-1.77 1.77-3.33 3.66a53 53 0 0 0-2.97 3.99c-.92 1.36-1.78 2.8-2.59 4.3-.8 1.49-1.56 3.05-2.26 4.67l-.05.11-.07.14c-.63 1.5-1.19 3.04-1.67 4.61-.49 1.59-.9 3.23-1.24 4.93-.35 1.73-.6 3.45-.77 5.17s-.25 3.5-.25 5.35.08 3.64.25 5.35.42 3.44.77 5.17a50 50 0 0 0 2.97 9.66c.04.07.07.14.1.21a56 56 0 0 0 4.82 8.9c.93 1.39 1.92 2.72 2.98 4 1.02 1.24 2.11 2.44 3.26 3.59.07.06.13.12.19.19a52 52 0 0 0 3.59 3.26q1.92 1.575 3.99 2.97c1.36.92 2.8 1.78 4.3 2.59 1.49.8 3.05 1.56 4.67 2.26l.21.1c1.52.64 3.07 1.2 4.67 1.69 1.58.49 3.23.9 4.92 1.24 1.73.35 3.45.6 5.17.77s3.5.25 5.35.25 3.64-.08 5.35-.25 3.44-.42 5.17-.77c1.72-.35 3.39-.77 5-1.27a48 48 0 0 0 4.71-1.73l.09-.04v-.01c1.63-.7 3.18-1.45 4.67-2.25 1.5-.81 2.94-1.68 4.31-2.6 1.38-.93 2.72-1.92 3.99-2.97a51 51 0 0 0 3.62-3.29c.06-.06.11-.12.18-.18 1.15-1.15 2.23-2.35 3.25-3.58a51 51 0 0 0 5.57-8.3c.8-1.49 1.56-3.04 2.26-4.67l.1-.22c.64-1.51 1.2-3.06 1.69-4.65s.9-3.23 1.24-4.93c.35-1.73.6-3.45.77-5.17s.25-3.5.25-5.35-.08-3.64-.25-5.35-.42-3.44-.77-5.17c-.35-1.72-.77-3.39-1.27-5a48 48 0 0 0-1.73-4.71l-.04-.09c-.7-1.63-1.45-3.18-2.25-4.67a51 51 0 0 0-5.56-8.29 50 50 0 0 0-3.28-3.61q-.105-.09-.18-.18a50 50 0 0 0-3.59-3.26 53 53 0 0 0-3.99-2.97c-1.37-.92-2.8-1.78-4.3-2.59-1.49-.8-3.04-1.56-4.67-2.25l-.19-.09a49 49 0 0 0-9.61-2.94c-1.73-.35-3.45-.6-5.17-.77-1.73-.14-3.52-.22-5.37-.22m1.9 21.94c2.19 0 3.91.63 5.16 1.88 1.24 1.25 1.87 2.96 1.87 5.17 0 2.24-1.07 4.22-3.21 5.97-2.16 1.74-4.66 2.62-7.52 2.62-2.14 0-3.85-.6-5.16-1.8-1.31-1.22-1.96-2.79-1.96-4.75 0-2.47 1.07-4.59 3.19-6.4 2.11-1.8 4.66-2.69 7.63-2.69m12.21 60.54H47.33v-4.75h5.3V57.95h-5.3v-3.78h13.19c3.33 0 6.61-.4 9.85-1.22v34.01h5.18zM49.12 1.2C51.08.81 53.11.51 55.2.31 57.29.1 59.37 0 61.44 0s4.15.1 6.24.31c2.09.2 4.12.5 6.08.89a59 59 0 0 1 11.4 3.52l.19.07.06.02a64 64 0 0 1 10.45 5.68c1.63 1.1 3.21 2.27 4.73 3.52s2.97 2.56 4.34 3.95c1.38 1.38 2.7 2.83 3.95 4.34 1.25 1.52 2.42 3.09 3.52 4.73 1.09 1.63 2.11 3.32 3.06 5.06h.01a65 65 0 0 1 2.61 5.39l.06.15c.78 1.83 1.46 3.7 2.05 5.6.61 1.96 1.11 3.92 1.5 5.89.39 1.96.69 3.99.89 6.08q.3 3.135.3 6.24c0 2.07-.1 4.15-.31 6.24-.2 2.09-.5 4.12-.89 6.08a59 59 0 0 1-1.48 5.82c-.58 1.89-1.27 3.76-2.05 5.62l-.04.09-.05.11a64 64 0 0 1-5.68 10.45c-1.1 1.63-2.27 3.21-3.52 4.73a58 58 0 0 1-3.95 4.34c-1.38 1.38-2.83 2.7-4.35 3.95a60 60 0 0 1-4.72 3.51 66 66 0 0 1-5.06 3.06c-1.78.96-3.57 1.84-5.39 2.62-.05.02-.1.04-.16.06-1.83.78-3.7 1.46-5.6 2.05q-2.94.915-5.88 1.5c-1.96.39-3.99.69-6.08.89q-3.135.3-6.24.3c-3.105 0-4.15-.1-6.24-.3s-4.12-.5-6.08-.89a59 59 0 0 1-11.43-3.53l-.2-.08a64 64 0 0 1-10.45-5.68 60 60 0 0 1-9.07-7.46c-1.38-1.38-2.7-2.83-3.95-4.34-1.25-1.52-2.42-3.1-3.52-4.73a66 66 0 0 1-3.06-5.06 64 64 0 0 1-2.62-5.4l-.06-.15c-.78-1.83-1.46-3.7-2.05-5.6-.61-1.96-1.11-3.93-1.5-5.89s-.69-3.99-.89-6.08C.1 65.59 0 63.51 0 61.44s.1-4.15.31-6.24c.2-2.09.5-4.12.89-6.08a59 59 0 0 1 3.52-11.41l.09-.23a64 64 0 0 1 5.68-10.45c1.1-1.63 2.27-3.21 3.52-4.73a58 58 0 0 1 3.95-4.34c1.38-1.38 2.83-2.7 4.34-3.95 1.52-1.25 3.09-2.42 4.73-3.52 1.67-1.12 3.36-2.14 5.07-3.07l.13-.06c1.73-.94 3.48-1.78 5.26-2.55l.15-.06c1.83-.78 3.7-1.46 5.6-2.05q2.925-.915 5.88-1.5"/>
</svg>
