<svg xmlns="http://www.w3.org/2000/svg" viewBox="0 0 24 24">
    <path fill="#ffffff" d="M19.14 12.94c.04-.31.06-.62.06-.94s-.02-.63-.06-.94l2.03-1.58a.5.5 0 0 0 .12-.64l-1.92-3.32a.5.5 0 0 0-.6-.22l-2.39.96a7.1 7.1 0 0 0-1.63-.94L14.4 2.8a.5.5 0 0 0-.49-.4h-3.82a.5.5 0 0 0-.49.4l-.36 2.52c-.58.23-1.13.54-1.63.94l-2.39-.96a.5.5 0 0 0-.6.22L2.7 8.84a.5.5 0 0 0 .12.64l2.03 1.58c-.04.31-.06.62-.06.94s.02.63.06.94L2.82 14.5a.5.5 0 0 0-.12.64l1.92 3.32c.13.23.39.32.6.22l2.39-.96c.5.4 1.05.72 1.63.94l.36 2.52c.04.24.25.4.49.4h3.82c.24 0 .45-.16.49-.4l.36-2.52c.58-.23 1.13-.54 1.63-.94l2.39.96c.22.09.48 0 .6-.22l1.92-3.32a.5.5 0 0 0-.12-.64zM12 15.5A3.5 3.5 0 1 1 12 8.5a3.5 3.5 0 0 1 0 7" />
</svg>
