<?xml version="1.0" encoding="UTF-8" standalone="no"?>
<!-- Created with Inkscape (http://www.inkscape.org/) -->

<svg
   width="100"
   height="100"
   viewBox="0 0 26.458333 26.458333"
   version="1.1"
   id="svg9602"
   xmlns="http://www.w3.org/2000/svg"
   xmlns:svg="http://www.w3.org/2000/svg">
  <defs
     id="defs9599" />
  <g
     id="layer1">
    <rect
       style="fill:#242424;fill-opacity:1;stroke:none;stroke-width:0.671348;stroke-linejoin:round;stroke-dasharray:none"
       id="rect8445"
       width="26.378244"
       height="26.508022"
       x="0.059478253"
       y="0.0009513023"
       rx="4"
       ry="4" />
    <g
       aria-label="P"
       transform="matrix(0.3883926,0,0,0.3883926,-64.217943,-131.42398)"
       id="text416-2"
       style="font-size:74.6667px;font-family:'The Amaranth';-inkscape-font-specification:'The Amaranth, Normal';white-space:pre;shape-inside:url(#rect418-2);display:inline;fill:#ff1c30;stroke-width:1.06591;stroke-linejoin:round">
      <path
         d="m 182.08151,397.45387 v -50.02669 h 15.38134 q 4.032,0 7.54134,1.49333 3.50933,1.49334 6.12267,4.18134 2.61333,2.61333 4.10667,6.12267 1.49333,3.50933 1.49333,7.54133 0,3.95734 -1.49333,7.46667 -1.49334,3.50934 -4.10667,6.12267 -2.61334,2.53867 -6.12267,4.03201 -3.50934,1.49333 -7.54134,1.49333 h -8.81067 v 11.57334 z m 6.57067,-18.14401 h 8.81067 q 2.61334,0 4.928,-0.97067 2.31467,-1.04533 4.03201,-2.688 1.71733,-1.71733 2.688,-3.95733 1.04533,-2.31467 1.04533,-4.92801 0,-2.688 -1.04533,-5.00267 -0.97067,-2.31466 -2.688,-4.032 -1.71734,-1.71733 -4.03201,-2.688 -2.31466,-0.97067 -4.928,-0.97067 h -8.81067 z"
         style="font-family:'Bunya PERSONAL';-inkscape-font-specification:'Bunya PERSONAL, Normal'"
         id="path9573" />
    </g>
  </g>
</svg>
