<?xml version="1.0" encoding="UTF-8" standalone="no"?>
<!-- Created with Inkscape (http://www.inkscape.org/) -->

<svg
   width="1920"
   height="1080"
   viewBox="0 0 507.99997 285.75"
   version="1.1"
   id="svg5"
   xmlns:xlink="http://www.w3.org/1999/xlink"
   xmlns="http://www.w3.org/2000/svg"
   xmlns:svg="http://www.w3.org/2000/svg">
  <defs
     id="defs2">
    <linearGradient
       id="linearGradient1156">
      <stop
         style="stop-color:#505050;stop-opacity:0.30202579;"
         offset="0"
         id="stop1152" />
      <stop
         style="stop-color:#c7c7c7;stop-opacity:0.16758747;"
         offset="1"
         id="stop1154" />
    </linearGradient>
    <radialGradient
       xlink:href="#linearGradient1156"
       id="radialGradient5833"
       gradientUnits="userSpaceOnUse"
       gradientTransform="matrix(1,0,0,0.31128638,0,13.805446)"
       cx="168.40327"
       cy="20.045263"
       fx="168.40327"
       fy="20.045263"
       r="8.3192425" />
    <radialGradient
       xlink:href="#linearGradient1156"
       id="radialGradient5835"
       gradientUnits="userSpaceOnUse"
       gradientTransform="matrix(1,0,0,0.31128638,0,13.805446)"
       cx="168.40327"
       cy="20.045263"
       fx="168.40327"
       fy="20.045263"
       r="8.3192425" />
    <radialGradient
       xlink:href="#linearGradient1156"
       id="radialGradient5837"
       gradientUnits="userSpaceOnUse"
       gradientTransform="matrix(1,0,0,0.31128638,0,13.805446)"
       cx="168.40327"
       cy="20.045263"
       fx="168.40327"
       fy="20.045263"
       r="8.3192425" />
    <radialGradient
       xlink:href="#linearGradient1156"
       id="radialGradient5839"
       gradientUnits="userSpaceOnUse"
       gradientTransform="matrix(1,0,0,0.31128638,0,13.805446)"
       cx="168.40327"
       cy="20.045263"
       fx="168.40327"
       fy="20.045263"
       r="8.3192425" />
    <radialGradient
       xlink:href="#linearGradient1156"
       id="radialGradient5841"
       gradientUnits="userSpaceOnUse"
       gradientTransform="matrix(1,0,0,0.31128638,0,13.805446)"
       cx="168.40327"
       cy="20.045263"
       fx="168.40327"
       fy="20.045263"
       r="8.3192425" />
    <radialGradient
       xlink:href="#linearGradient1156"
       id="radialGradient5843"
       gradientUnits="userSpaceOnUse"
       gradientTransform="matrix(1,0,0,0.31128638,0,13.805446)"
       cx="168.40327"
       cy="20.045263"
       fx="168.40327"
       fy="20.045263"
       r="8.3192425" />
    <radialGradient
       xlink:href="#linearGradient1156"
       id="radialGradient5845"
       gradientUnits="userSpaceOnUse"
       gradientTransform="matrix(1,0,0,0.31128638,0,13.805446)"
       cx="168.40327"
       cy="20.045263"
       fx="168.40327"
       fy="20.045263"
       r="8.3192425" />
    <radialGradient
       xlink:href="#linearGradient1156"
       id="radialGradient5847"
       gradientUnits="userSpaceOnUse"
       gradientTransform="matrix(1,0,0,0.31128638,0,13.805446)"
       cx="168.40327"
       cy="20.045263"
       fx="168.40327"
       fy="20.045263"
       r="8.3192425" />
  </defs>
  <g
     id="layer1">
    <g
       aria-label="Playlet"
       transform="matrix(18.534073,0,0,21.199658,-2867.2105,-282.0651)"
       id="text484"
       style="font-size:3.175px;font-family:'The Amaranth';-inkscape-font-specification:'The Amaranth, Normal';white-space:pre;inline-size:111.711;opacity:1;fill:#ff0000;stroke:url(#radialGradient5847);stroke-width:0.264494;stroke-linejoin:round">
      <path
         d="m 161.15529,20.959066 c 0.80222,0.347114 2.36423,-0.674942 2.83476,-1.858985 0.6518,-1.631434 -1.01049,-2.055683 -2.80005,-0.713511 -0.70965,0.536097 -1.13776,1.164758 -0.91407,1.353742 0.0926,0.07714 0.23527,-0.03857 0.18513,-0.146559 -0.15041,-0.3394 1.02591,-1.349886 1.91684,-1.64686 1.26118,-0.42425 1.85513,0.150415 1.29203,1.245751 -0.49753,0.975775 -1.8667,1.882127 -2.45679,1.62372 -0.0771,-0.03085 0.62095,-1.592865 0.79836,-1.785706 0.11571,-0.127275 0.10799,-0.323972 -0.0154,-0.3394 -0.0849,-0.01157 -0.15427,0.09256 -0.4551,0.6788 -0.58624,1.133904 -0.91407,2.395083 -0.66337,2.549356 0.0617,0.03857 0.13499,0.0039 0.15427,-0.07714 0.0116,-0.05014 0.004,-0.08485 -0.027,-0.09642 -0.0231,-0.0039 -0.0231,-0.0077 -0.0116,-0.138845 0.027,-0.258407 0.12728,-0.663373 0.16199,-0.647946 z"
         style="font-size:4.62818px;stroke:url(#radialGradient5833)"
         id="path1162" />
      <path
         d="m 165.26279,18.101165 c -0.0848,-0.115704 -0.26226,0.05014 -0.63637,0.605521 -0.96035,1.430878 -1.31132,2.973605 -0.69809,3.085453 0.28927,0.05014 0.7058,-0.246836 1.48102,-1.064482 0.28155,-0.289261 0.30083,-0.320115 0.25455,-0.374111 -0.0501,-0.05785 -0.054,-0.054 -0.55538,0.451248 -0.58624,0.590093 -0.82921,0.782934 -1.03748,0.825359 -0.58624,0.115704 0.0193,-1.731711 1.04905,-3.193445 0.18127,-0.258406 0.18899,-0.273834 0.1427,-0.335543 z"
         style="font-size:4.62818px;stroke:url(#radialGradient5835)"
         id="path1164" />
      <path
         d="m 167.789,20.561814 c 0.2237,-0.242979 0.24684,-0.27769 0.20056,-0.323972 -0.0386,-0.03857 -0.0617,-0.02314 -0.26227,0.18127 -0.6248,0.644088 -1.04905,0.921779 -1.22647,0.817645 -0.21212,-0.119561 -0.0656,-0.77522 0.28155,-1.376883 0.16199,-0.277691 0.0154,-0.416537 -0.18513,-0.154273 -0.0386,0.04628 -0.0386,0.04628 -0.054,0.02314 -0.20441,-0.289261 -0.5361,-0.165843 -0.85236,0.285404 -0.5978,0.856214 -0.22369,1.589009 0.40497,0.786791 0.0386,-0.05014 0.0733,-0.09256 0.0733,-0.08871 0,0 -0.004,0.03085 -0.008,0.06942 -0.0386,0.343257 0.0347,0.601663 0.2507,0.651802 0.2854,0.06557 0.72122,-0.173557 1.37688,-0.871641 z m -1.48487,-0.335543 c -0.0733,0.181271 -0.38954,0.574666 -0.53996,0.6788 -0.0964,0.06171 -0.1157,0.05785 -0.11185,-0.027 0,-0.185127 0.15813,-0.566952 0.3394,-0.813788 0.17742,-0.239123 0.32398,-0.327829 0.42811,-0.26612 0.0694,0.04242 0.0694,0.04628 -0.0154,0.212125 -0.0386,0.08099 -0.0849,0.177413 -0.10027,0.215981 z"
         style="font-size:4.62818px;stroke:url(#radialGradient5837)"
         id="path1166" />
      <path
         d="m 170.10694,20.233985 c -0.027,-0.05014 -0.0694,-0.03857 -0.1697,0.05785 -0.25069,0.231409 -0.60552,0.447391 -0.94878,0.628661 -0.16584,0.08485 -0.16198,0.08871 -0.10413,-0.027 0.18513,-0.381825 0.53995,-1.172473 0.55152,-1.288177 0.0193,-0.185127 -0.16198,-0.146559 -0.26226,0.05785 -0.0424,0.08485 -0.10799,0.165843 -0.38954,0.512957 -0.39339,0.474388 -0.6518,0.70194 -0.77136,0.686513 -0.13499,-0.01928 0.0347,-0.624804 0.29697,-1.056768 0.10028,-0.165843 0.0964,-0.258406 -0.0193,-0.293118 -0.25069,-0.07328 -0.65566,0.894782 -0.53224,1.288177 0.11956,0.389538 0.46282,0.250693 1.05291,-0.42425 0.054,-0.06171 0.10028,-0.111848 0.10028,-0.111848 0,0.0077 -0.10414,0.239123 -0.16585,0.374112 -0.2314,0.489815 -0.27769,0.574665 -0.35097,0.613234 -0.61323,0.320115 -0.9642,0.613233 -1.06062,0.894781 -0.0656,0.18127 -0.0193,0.308545 0.12342,0.347113 0.32397,0.08485 0.85621,-0.470531 1.25346,-1.249608 0.004,-0.01157 0.0771,-0.054 0.16199,-0.100277 0.49753,-0.258407 0.69808,-0.358684 0.9912,-0.601664 0.21213,-0.177413 0.27384,-0.250693 0.24298,-0.308545 z m -1.8397,1.330602 c -0.2237,0.370254 -0.45896,0.632518 -0.65952,0.732795 -0.13884,0.07328 -0.18898,0.01157 -0.12341,-0.142702 0.0887,-0.212125 0.41653,-0.489816 0.7945,-0.682657 0.0617,-0.03085 0.0617,-0.03085 -0.0116,0.09256 z"
         style="font-size:4.62818px;stroke:url(#radialGradient5839)"
         id="path1168" />
      <path
         d="m 171.39126,18.101165 c -0.0848,-0.115704 -0.26226,0.05014 -0.63637,0.605521 -0.96035,1.430878 -1.31132,2.973605 -0.69809,3.085453 0.28926,0.05014 0.7058,-0.246836 1.48102,-1.064482 0.28155,-0.289261 0.30083,-0.320115 0.25455,-0.374111 -0.0501,-0.05785 -0.054,-0.054 -0.55538,0.451248 -0.58624,0.590093 -0.82922,0.782934 -1.03749,0.825359 -0.58623,0.115704 0.0193,-1.731711 1.04906,-3.193445 0.18127,-0.258406 0.18898,-0.273834 0.1427,-0.335543 z"
         style="font-size:4.62818px;stroke:url(#radialGradient5841)"
         id="path1170" />
      <path
         d="m 171.81936,21.14805 c 0.27383,0.054 0.69423,-0.142702 1.22261,-0.578522 0.24298,-0.200555 0.27383,-0.239123 0.21598,-0.277691 -0.0347,-0.02314 -0.0579,-0.0077 -0.21598,0.123418 -0.59781,0.49753 -1.1339,0.725082 -1.23804,0.524527 -0.0463,-0.09642 0.0347,-0.493672 0.10028,-0.478245 0.25841,0.054 0.56309,-0.219838 0.67494,-0.597806 0.10028,-0.3394 -0.1967,-0.455105 -0.50524,-0.192841 -0.55153,0.470531 -0.70965,1.388454 -0.25455,1.47716 z m 0.4551,-1.303604 c 0.11957,-0.119561 0.1697,-0.127275 0.16199,-0.02314 -0.0116,0.177413 -0.16199,0.412679 -0.31626,0.489815 -0.0617,0.03085 -0.17741,0.05014 -0.17741,0.027 0,-0.05785 0.21598,-0.381825 0.33168,-0.493673 z"
         style="font-size:4.62818px;stroke:url(#radialGradient5843)"
         id="path1172" />
      <path
         d="m 174.17587,18.899526 c 0.0501,-0.0077 0.29697,-0.05785 0.54381,-0.107991 1.14162,-0.227552 1.56201,-0.250693 1.71243,-0.100277 0.0656,0.06557 0.15813,0.027 0.15813,-0.06942 -0.004,-0.223696 -0.40883,-0.258407 -1.25347,-0.100278 -0.081,0.01543 -0.2854,0.054 -0.4551,0.08485 -0.54381,0.100278 -0.6788,0.127275 -0.6788,0.123418 -0.004,-0.0039 0.15427,-0.250693 0.22755,-0.358684 0.18127,-0.258406 0.18898,-0.273834 0.1427,-0.335543 -0.0887,-0.119561 -0.26226,0.05014 -0.64409,0.617091 -0.10799,0.161986 -0.0771,0.150416 -0.49753,0.204411 -0.84078,0.107991 -1.36917,0.05785 -1.43859,-0.142702 -0.054,-0.146559 -0.22369,-0.123418 -0.21212,0.027 0.0231,0.323972 0.66337,0.416536 1.76642,0.262263 0.1967,-0.027 0.18513,-0.04628 0.0926,0.115705 -0.75208,1.322888 -0.93335,2.510788 -0.40111,2.607208 0.28926,0.05014 0.70194,-0.250693 1.48488,-1.064481 0.32011,-0.331687 0.3394,-0.362541 0.29311,-0.416537 -0.0501,-0.05785 -0.054,-0.054 -0.5978,0.493673 -0.58624,0.590093 -0.82922,0.782934 -1.03749,0.825359 -0.46667,0.09256 -0.20055,-1.068339 0.55153,-2.395083 0.15813,-0.277691 0.13113,-0.250694 0.24298,-0.269978 z"
         style="font-size:4.62818px;stroke:url(#radialGradient5845)"
         id="path1174" />
    </g>
  </g>
</svg>
